<svg width="26" height="27" viewBox="0 0 26 27" fill="none" xmlns="http://www.w3.org/2000/svg">
<path d="M1.01953 15.1628L10.1519 19.7463C11.7036 20.5135 13.4124 20.5135 14.9641 19.7463L24.0965 15.1628M1.01953 19.8408L10.1519 24.4242C11.7036 25.1915 13.4124 25.1915 14.9641 24.4242L24.0965 19.8408M22.1628 5.78579L14.6187 2.36926C13.2801 1.76493 11.8279 1.76493 10.4893 2.36926L2.9452 5.78579C2.48737 5.99474 2.09023 6.38755 1.80909 6.90953C1.52795 7.43151 1.37684 8.05667 1.37684 8.69774C1.37684 9.33881 1.52795 9.96384 1.80909 10.4858C2.09023 11.0078 2.48737 11.4007 2.9452 11.6097L10.394 14.9841C11.7837 15.6149 13.2925 15.6149 14.6822 14.9841L22.131 11.6097C22.59 11.4052 22.9893 11.016 23.2734 10.4967C23.5574 9.97743 23.7119 9.35385 23.7154 8.71275C23.7189 8.07166 23.5713 7.44498 23.2929 6.92031C23.0146 6.39564 22.6196 5.99907 22.1628 5.78579Z" stroke="#FFFDF9" stroke-width="2.05756" stroke-linecap="round" stroke-linejoin="round"/>
</svg>
