<svg width="26" height="26" viewBox="0 0 26 26" fill="none" xmlns="http://www.w3.org/2000/svg">
<path d="M20.6995 5.76065C20.9639 5.87217 21.2223 5.99733 21.4738 6.13559C21.5774 6.19087 21.678 6.2517 21.7751 6.31779C24.0105 7.71932 24.5782 10.4138 24.6483 12.7263C24.6483 13.0767 24.6483 13.4271 24.6483 13.7775V24.338L20.0933 21.7066H17.3217C16.3915 21.8174 15.4555 21.8723 14.5187 21.8713C13.5153 21.8795 12.5124 21.8245 11.5159 21.7066C9.03872 21.4053 6.61047 20.6274 5.36661 18.8335M20.1843 5.06339C19.6511 4.3305 18.9556 3.7309 18.1522 3.31148C16.6532 2.55626 15.0191 2.10607 13.3448 1.98702C12.5495 1.90993 11.6701 1.86093 10.7556 1.85742C8.52719 1.85742 6.11304 2.10268 4.17893 3.16434C4.07529 3.21963 3.97458 3.28046 3.87748 3.34655C1.64203 4.74808 1.07451 7.44254 1.00444 9.75507C1.00444 10.1055 0.986816 10.4558 0.986816 10.8062V21.3702L5.5418 18.7389C5.5418 18.7389 10.2195 18.9 11.1305 18.9035C12.1339 18.9118 13.1367 18.8568 14.1332 18.7389C17.3567 18.3499 20.4787 17.1447 21.0743 13.9597C21.3037 12.7242 21.421 11.4705 21.4247 10.214C21.4247 8.31844 21.1163 6.38784 20.1843 5.06339Z" stroke="white" stroke-width="1.75192" stroke-linecap="round" stroke-linejoin="round"/>
</svg>
