<svg width="27" height="24" viewBox="0 0 27 24" fill="none" xmlns="http://www.w3.org/2000/svg">
<path d="M22.5854 8.02297V18.6679C22.5854 19.8169 22.129 20.9187 21.3166 21.7311C20.5042 22.5435 19.4023 23 18.2533 23H16.4086V18.9531C16.4086 18.1776 16.1005 17.4338 15.5521 16.8854C15.0038 16.337 14.26 16.029 13.4845 16.029C12.7089 16.029 11.9652 16.337 11.4168 16.8854C10.8684 17.4338 10.5603 18.1776 10.5603 18.9531V23H8.71558C7.56664 23 6.46476 22.5435 5.65234 21.7311C4.83992 20.9187 4.38351 19.8169 4.38351 18.6679V8.023M26.0583 11.8233L17.979 2.98227C17.4087 2.35772 16.7144 1.85883 15.9406 1.51754C15.1667 1.17624 14.3302 1 13.4845 1C12.6387 1 11.8022 1.17624 11.0284 1.51754C10.2545 1.85883 9.56027 2.35772 8.98995 2.98227L0.910645 11.8233" stroke="#FFFDF9" stroke-width="1.80503" stroke-linecap="round" stroke-linejoin="round"/>
</svg>
