<svg width="28" height="28" viewBox="0 0 28 28" fill="none" xmlns="http://www.w3.org/2000/svg">
<line x1="0.963105" y1="27.095" x2="26.1531" y2="27.095" stroke="white" stroke-width="1.81" stroke-linecap="round"/>
<path d="M13.4782 8.44248C15.5334 8.44248 17.1995 6.77642 17.1995 4.72124C17.1995 2.66606 15.5334 1 13.4782 1C11.4231 1 9.757 2.66606 9.757 4.72124C9.757 6.77642 11.4231 8.44248 13.4782 8.44248Z" stroke="#FFFDF9" stroke-width="1.65388" stroke-linecap="round" stroke-linejoin="round"/>
<path d="M20.3286 19.3118C18.5424 23.3241 13.4551 22.9934 13.4551 22.9934C13.4551 22.9934 8.36445 23.3109 6.58157 19.3118C6.23651 18.5425 6.05811 17.7088 6.05811 16.8657C6.05811 16.0225 6.23651 15.189 6.58157 14.4197C8.36445 10.4073 13.4551 10.7381 13.4551 10.7381C13.4551 10.7381 18.5424 10.4206 20.3286 14.4197C20.6736 15.189 20.8521 16.0225 20.8521 16.8657C20.8521 17.7088 20.6736 18.5425 20.3286 19.3118Z" stroke="#FFFDF9" stroke-width="1.65388" stroke-linecap="round" stroke-linejoin="round"/>
</svg>
