<svg width="14" height="19" viewBox="0 0 14 19" fill="none" xmlns="http://www.w3.org/2000/svg">
<path d="M7.7243 17.5039C7.69758 17.7281 7.58955 17.9349 7.42065 18.0848C7.25175 18.2348 7.03371 18.3176 6.80784 18.3176C6.58197 18.3176 6.36396 18.2348 6.19507 18.0848C6.02617 17.9349 5.91814 17.7281 5.89142 17.5039M1.21195 11.9896C1.61418 10.9715 1.76447 9.87138 1.65007 8.78272C1.60075 8.33568 1.61121 7.88402 1.68117 7.43975C1.89442 6.16995 2.55084 5.01686 3.53381 4.1852C4.51677 3.35355 5.76268 2.89718 7.05027 2.89718C8.33785 2.89718 9.58376 3.35355 10.5667 4.1852C11.5497 5.01686 12.2061 6.16995 12.4193 7.43975C12.4893 7.88402 12.4998 8.33568 12.4504 8.78272C12.3387 9.87133 12.4889 10.9709 12.8886 11.9896C13.0517 12.3746 13.1228 12.7922 13.0964 13.2095C13.07 13.6267 12.9467 14.032 12.7364 14.3933C12.5261 14.7546 12.2344 15.062 11.8846 15.2909C11.5348 15.5199 11.1365 15.6642 10.7212 15.7125C8.28239 15.9855 5.82071 15.9855 3.38187 15.7125C2.96661 15.6641 2.56831 15.5197 2.2185 15.2907C1.8687 15.0618 1.57698 14.7546 1.36645 14.3934C1.15592 14.0322 1.03237 13.6269 1.00555 13.2097C0.97873 12.7925 1.04939 12.3748 1.21195 11.9896ZM8.01984 1.967C8.01984 2.50106 7.5869 2.93401 7.05284 2.93401C6.51878 2.93401 6.08584 2.50106 6.08584 1.967C6.08584 1.43294 6.51878 1 7.05284 1C7.5869 1 8.01984 1.43294 8.01984 1.967Z" stroke="#EC888D" stroke-width="1.29625" stroke-linecap="round" stroke-linejoin="round"/>
</svg>
