<svg width="31" height="41" viewBox="0 0 31 41" fill="none" xmlns="http://www.w3.org/2000/svg">
<path d="M11.4976 39.4015L27.2956 27.4112C28.3243 26.6299 29.1584 25.6211 29.7326 24.464C30.3069 23.3068 30.6056 22.0325 30.6056 20.7407C30.6056 19.4489 30.3069 18.1746 29.7326 17.0174C29.1584 15.8602 28.3243 14.8515 27.2956 14.0702L11.4976 2.07958C10.4977 1.31898 9.30536 0.853086 8.05469 0.734131C6.80401 0.615177 5.54475 0.847901 4.41938 1.40636C3.29401 1.96482 2.34752 2.8268 1.68584 3.89476C1.02417 4.96271 0.674036 6.19417 0.675019 7.45049V34.0309C0.674036 35.2872 1.02417 36.5187 1.68584 37.5866C2.34752 38.6546 3.29401 39.5163 4.41938 40.0748C5.54475 40.6332 6.80401 40.8662 8.05469 40.7472C9.30536 40.6283 10.4977 40.1621 11.4976 39.4015Z" fill="#FFFDF9"/>
</svg>
