<svg width="35" height="49" viewBox="0 0 35 49" fill="none" xmlns="http://www.w3.org/2000/svg">
<path d="M17.4996 17.0857C21.6946 17.0857 25.0953 13.6849 25.0953 9.48995C25.0953 5.29495 21.6946 1.89423 17.4996 1.89423C13.3046 1.89423 9.90387 5.29495 9.90387 9.48995C9.90387 13.6849 13.3046 17.0857 17.4996 17.0857Z" stroke="#FD5D69" stroke-width="3.37588" stroke-linecap="round" stroke-linejoin="round"/>
<path d="M31.4824 39.2719C27.8364 47.4617 17.4524 46.7867 17.4524 46.7867C17.4524 46.7867 7.06143 47.4347 3.42224 39.2719C2.71792 37.7016 2.35376 36 2.35376 34.2789C2.35376 32.5579 2.71792 30.8565 3.42224 29.2862C7.06143 21.0963 17.4524 21.7714 17.4524 21.7714C17.4524 21.7714 27.8364 21.1233 31.4824 29.2862C32.1867 30.8565 32.5509 32.5579 32.5509 34.2789C32.5509 36 32.1867 37.7016 31.4824 39.2719Z" stroke="#FD5D69" stroke-width="3.37588" stroke-linecap="round" stroke-linejoin="round"/>
</svg>
