<svg width="21" height="22" viewBox="0 0 21 22" fill="none" xmlns="http://www.w3.org/2000/svg">
<path d="M12.5538 13.4148L15.286 15.4414C15.5297 15.6223 15.6914 15.8925 15.7358 16.1927C15.7802 16.4929 15.7035 16.7984 15.5226 17.0421C15.3417 17.2857 15.0714 17.4475 14.7712 17.4918C14.4711 17.5362 14.1656 17.4595 13.922 17.2786C13.7928 17.1815 13.6852 17.0587 13.6057 16.918L11.9502 13.9449C11.9049 13.8629 11.889 13.7678 11.9051 13.6755C11.9213 13.5832 11.9684 13.4991 12.0389 13.4372C12.1093 13.3754 12.1987 13.3394 12.2923 13.3353C12.386 13.3312 12.4782 13.3593 12.5538 13.4148Z" stroke="#EC888D" stroke-width="1.2241" stroke-linecap="round" stroke-linejoin="round"/>
<circle cx="8.37135" cy="8.54168" r="5.93182" transform="rotate(-41.2978 8.37135 8.54168)" stroke="#EC888D" stroke-width="1.31818"/>
</svg>
