<svg width="25" height="17" viewBox="0 0 25 17" fill="none" xmlns="http://www.w3.org/2000/svg">
<path d="M23.4023 8.50005H11.3936V13.8348C11.3934 14.145 11.3066 14.449 11.143 14.7126C10.9794 14.9762 10.7454 15.1888 10.4675 15.3266C10.1896 15.4644 9.87875 15.5218 9.56993 15.4925C9.26111 15.4633 8.96667 15.3483 8.71962 15.1607L3.24333 11.0017C2.85694 10.709 2.5436 10.3308 2.32785 9.89681C2.1121 9.46277 1.99981 8.98475 1.99981 8.50005C1.99981 8.01536 2.1121 7.53723 2.32785 7.1032C2.5436 6.66916 2.85694 6.29096 3.24333 5.99833L8.71962 1.83927C8.96667 1.65166 9.26111 1.53674 9.56993 1.50745C9.87875 1.47816 10.1896 1.5356 10.4675 1.67341C10.7454 1.81122 10.9794 2.02385 11.143 2.2874C11.3066 2.55096 11.3934 2.85502 11.3936 3.16523V4.30117" stroke="#FD5D69" stroke-width="2.15865" stroke-linecap="round" stroke-linejoin="round"/>
</svg>
