<svg width="12" height="12" viewBox="0 0 12 12" fill="none" xmlns="http://www.w3.org/2000/svg">
<path id="Vector" d="M7.95418 1.64215C8.5638 0.673042 9.74492 0.910756 10.4338 1.62858C11.1227 2.34641 11.2248 3.41936 10.507 4.10823M10.507 4.10823C10.9473 5.28036 10.9473 6.57249 10.507 7.74462C9.37916 10.7135 6.16647 10.4788 6.16647 10.4788C6.16647 10.4788 2.95377 10.7135 1.82597 7.74462C1.38669 6.57229 1.38669 5.28055 1.82597 4.10822M10.507 4.10823C9.37916 1.13938 6.16647 1.37561 6.16647 1.37561C6.16647 1.37561 2.95377 1.13937 1.82597 4.10822M4.37264 1.64423C3.61061 0.825418 2.53768 0.855918 1.85033 1.57375C1.16298 2.29157 1.10814 3.41935 1.82597 4.10822M8.84145 9.7972L9.76169 11M3.49267 9.79792L2.57121 11M6.16645 3.84915V5.13849C6.16661 5.38395 6.2232 5.62611 6.3318 5.84623C6.44041 6.06635 6.59811 6.25857 6.79282 6.40804L8.08372 7.39714" stroke="#EC888D" stroke-width="0.762026" stroke-linecap="round" stroke-linejoin="round"/>
</svg>
