<svg width="27" height="26" viewBox="0 0 27 26" fill="none" xmlns="http://www.w3.org/2000/svg">
<g id="Community">
<path id="Vector" d="M20.6995 5.76041C20.9639 5.87193 21.2223 5.99709 21.4738 6.13534C21.5774 6.19063 21.678 6.25146 21.7751 6.31755C24.0105 7.71908 24.5782 10.4135 24.6483 12.7261C24.6483 13.0765 24.6483 13.4268 24.6483 13.7772V24.3377L20.0933 21.7063H17.3217C16.3915 21.8171 15.4555 21.8721 14.5187 21.871C13.5153 21.8793 12.5124 21.8243 11.5159 21.7063C9.03872 21.405 6.61047 20.6272 5.36661 18.8332M20.1843 5.06315C19.6511 4.33026 18.9556 3.73066 18.1522 3.31123C16.6532 2.55602 15.0191 2.10583 13.3448 1.98678C12.5495 1.90969 11.6701 1.86068 10.7556 1.85718C8.52719 1.85718 6.11304 2.10244 4.17893 3.1641C4.07529 3.21939 3.97458 3.28021 3.87748 3.34631C1.64203 4.74784 1.07451 7.4423 1.00444 9.75483C1.00444 10.1052 0.986816 10.4556 0.986816 10.806V21.37L5.5418 18.7386C5.5418 18.7386 10.2195 18.8998 11.1305 18.9033C12.1339 18.9116 13.1367 18.8566 14.1332 18.7386C17.3567 18.3497 20.4787 17.1444 21.0743 13.9594C21.3037 12.724 21.421 11.4703 21.4247 10.2138C21.4247 8.31819 21.1163 6.3876 20.1843 5.06315Z" stroke="white" stroke-width="1.75192" stroke-linecap="round" stroke-linejoin="round"/>
</g>
</svg>
