<svg width="18" height="17" viewBox="0 0 18 17" fill="none" xmlns="http://www.w3.org/2000/svg">
<path d="M9.08074 2.91296C9.08074 2.91296 8.73356 3.2015 8.37437 3.71549C7.94162 4.33475 7.49145 5.28126 7.61 6.44471" fill="#FD5D69"/>
<path d="M9.08074 2.91296C9.08074 2.91296 8.73356 3.2015 8.37437 3.71549M7.61 6.44471C7.49145 5.28126 7.94162 4.33475 8.37437 3.71549M8.37437 3.71549C8.79107 3.12125 9.3084 2.66124 9.8375 2.31127M9.8375 2.31127C10.769 1.6951 11.737 1.42 12.2567 1.35388C12.8642 1.32972 13.4703 1.42907 14.0383 1.64587C14.6063 1.86268 15.1245 2.19243 15.5614 2.61522C17.4509 4.46686 17.7283 7.95827 16.0205 10.0193C14.3126 12.0803 11.5125 12.9936 9.78956 15.0899C9.51041 15.4234 9.27239 15.7893 9.08067 16.1797C8.88982 15.7894 8.65271 15.4235 8.37437 15.0899C6.64886 12.9936 3.86623 12.1005 2.14072 10.0193C0.41521 7.93809 0.710442 4.46939 2.59993 2.61522C3.61218 1.40435 5.92735 -0.16219 9.8375 2.31127Z" stroke="#FFFDF9" stroke-linecap="round" stroke-linejoin="round"/>
</svg>
