<svg width="28" height="28" viewBox="0 0 28 28" fill="none" xmlns="http://www.w3.org/2000/svg">
<g id="Group 451">
<line id="Line 235" x1="1.81564" y1="27.095" x2="27.0056" y2="27.095" stroke="white" stroke-width="1.81" stroke-linecap="round"/>
<path id="Vector" d="M23.5854 8.02297V18.6679C23.5854 19.8169 23.129 20.9187 22.3166 21.7311C21.5042 22.5435 20.4023 23 19.2533 23H17.4086V18.9531C17.4086 18.1776 17.1005 17.4338 16.5521 16.8854C16.0038 16.337 15.26 16.029 14.4845 16.029C13.7089 16.029 12.9652 16.337 12.4168 16.8854C11.8684 17.4338 11.5603 18.1776 11.5603 18.9531V23H9.71558C8.56664 23 7.46476 22.5435 6.65234 21.7311C5.83992 20.9187 5.38351 19.8169 5.38351 18.6679V8.02299M27.0583 11.8233L18.979 2.98227C18.4087 2.35772 17.7144 1.85883 16.9406 1.51754C16.1667 1.17624 15.3302 1 14.4845 1C13.6387 1 12.8022 1.17624 12.0284 1.51754C11.2545 1.85883 10.5603 2.35772 9.98995 2.98227L1.91064 11.8233" stroke="#FFFDF9" stroke-width="1.80503" stroke-linecap="round" stroke-linejoin="round"/>
</g>
</svg>
