<svg width="19" height="17" viewBox="0 0 19 17" fill="none" xmlns="http://www.w3.org/2000/svg">
<path d="M9.48333 2.91296C9.48333 2.91296 9.13614 3.2015 8.77696 3.71549C8.34421 4.33475 7.89403 5.28126 8.01258 6.44471" fill="#FD5D69"/>
<path d="M9.48333 2.91296C9.48333 2.91296 9.13614 3.2015 8.77696 3.71549M8.01258 6.44471C7.89403 5.28126 8.34421 4.33475 8.77696 3.71549M8.77696 3.71549C9.19366 3.12125 9.71099 2.66124 10.2401 2.31127M10.2401 2.31127C11.1716 1.6951 12.1396 1.42 12.6593 1.35388C13.2668 1.32972 13.8729 1.42907 14.4409 1.64587C15.0089 1.86268 15.5271 2.19243 15.964 2.61522C17.8535 4.46686 18.1309 7.95827 16.4231 10.0193C14.7152 12.0803 11.9151 12.9936 10.1921 15.0899C9.91299 15.4234 9.67498 15.7893 9.48326 16.1797C9.29241 15.7894 9.0553 15.4235 8.77696 15.0899C7.05145 12.9936 4.26882 12.1005 2.54331 10.0193C0.817798 7.93809 1.11303 4.46939 3.00251 2.61522C4.01476 1.40435 6.32994 -0.16219 10.2401 2.31127Z" stroke="#FFFDF9" stroke-linecap="round" stroke-linejoin="round"/>
</svg>
