<svg width="28" height="24" viewBox="0 0 28 24" fill="none" xmlns="http://www.w3.org/2000/svg">
<path d="M8.16353 20.002C6.4919 19.0878 5.08322 17.7595 4.07262 16.1443C1.81853 12.5484 4.70675 9.30023 7.79129 7.55341C9.39185 6.68841 11.1578 6.17327 12.9724 6.04209C14.7871 5.91092 16.6089 6.16665 18.3172 6.79246M21.1317 8.32248C22.1304 9.0783 22.9654 10.0289 23.5863 11.1166L23.619 11.178C26.1513 15.7026 21.3117 19.3598 17.4827 20.7302C15.2973 21.5098 12.9274 21.611 10.6835 21.0207M23.3491 5.39342C23.3491 5.39342 25.2052 6.75967 26.0041 7.59029M1.57715 7.59029C1.57715 7.59029 7.04674 1.953 13.7926 1.953C16.289 2.01153 18.7334 2.67706 20.9149 3.89209M10.9045 16.2425C10.4009 15.6811 10.0708 14.9859 9.95404 14.2408C9.83729 13.4958 9.93888 12.7328 10.2466 12.0443C10.5543 11.3557 11.0549 10.7712 11.6879 10.3612C12.3208 9.95113 13.059 9.73328 13.8131 9.73393C14.4327 9.73239 15.0433 9.88111 15.5926 10.1675M17.7159 13.6244C17.7148 14.6591 17.3033 15.6511 16.5716 16.3827C15.8399 17.1144 14.8479 17.5259 13.8131 17.527M22.1217 2.70979L6.60082 22.3012" stroke="#3E2823" stroke-opacity="0.45" stroke-width="2.04545" stroke-linecap="round" stroke-linejoin="round"/>
</svg>
