<svg width="32" height="44" viewBox="0 0 32 44" fill="none" xmlns="http://www.w3.org/2000/svg">
<g id="Vector">
<path id="Vector_2" d="M12.4974 39.4015L28.2953 27.4112C29.3241 26.6299 30.1582 25.6211 30.7324 24.464C31.3066 23.3068 31.6054 22.0325 31.6054 20.7407C31.6054 19.4489 31.3066 18.1746 30.7324 17.0174C30.1582 15.8602 29.3241 14.8515 28.2953 14.0702L12.4974 2.07958C11.4975 1.31898 10.3051 0.853086 9.05444 0.734131C7.80377 0.615177 6.54451 0.847901 5.41914 1.40636C4.29377 1.96482 3.34727 2.8268 2.6856 3.89476C2.02393 4.96271 1.67379 6.19417 1.67478 7.45049V34.0309C1.67379 35.2872 2.02393 36.5187 2.6856 37.5866C3.34727 38.6546 4.29377 39.5163 5.41914 40.0748C6.54451 40.6332 7.80377 40.8662 9.05444 40.7472C10.3051 40.6283 11.4975 40.1621 12.4974 39.4015Z" fill="#FFFDF9"/>
</g>
</svg>
