<svg width="17" height="24" viewBox="0 0 17 24" fill="none" xmlns="http://www.w3.org/2000/svg">
<g id="Profile">
<g id="Vector">
<path d="M8.47848 8.44248C10.5337 8.44248 12.1997 6.77642 12.1997 4.72124C12.1997 2.66606 10.5337 1 8.47848 1C6.4233 1 4.75724 2.66606 4.75724 4.72124C4.75724 6.77642 6.4233 8.44248 8.47848 8.44248Z" stroke="#FFFDF9" stroke-width="1.65388" stroke-linecap="round" stroke-linejoin="round"/>
<path d="M15.3288 19.3118C13.5426 23.3241 8.45536 22.9934 8.45536 22.9934C8.45536 22.9934 3.3647 23.3109 1.58181 19.3118C1.23676 18.5425 1.05835 17.7088 1.05835 16.8657C1.05835 16.0225 1.23676 15.189 1.58181 14.4197C3.3647 10.4073 8.45536 10.7381 8.45536 10.7381C8.45536 10.7381 13.5426 10.4206 15.3288 14.4197C15.6739 15.189 15.8523 16.0225 15.8523 16.8657C15.8523 17.7088 15.6739 18.5425 15.3288 19.3118Z" stroke="#FFFDF9" stroke-width="1.65388" stroke-linecap="round" stroke-linejoin="round"/>
</g>
</g>
</svg>
