<svg width="12" height="12" viewBox="0 0 12 12" fill="none" xmlns="http://www.w3.org/2000/svg">
<path d="M3.53308 5.19692H4.97957M3.53308 6.7165H8.81506M10.933 10.3373L10.1717 8.76291C10.4664 8.32525 10.6847 7.8408 10.8173 7.33013C11.0755 6.36949 11.0597 5.35577 10.7716 4.40366C9.73015 0.98689 6.17636 1.24726 6.17636 1.24726C6.17636 1.24726 2.57078 0.982323 1.55823 4.47979C1.28267 5.43789 1.28267 6.45426 1.55823 7.41236C2.57078 10.9144 6.17636 10.6464 6.17636 10.6464C7.15049 10.6771 8.11324 10.43 8.9521 9.93383L10.5326 10.7332C10.5881 10.7567 10.6494 10.7632 10.7087 10.7518C10.7679 10.7404 10.8224 10.7117 10.8653 10.6693C10.9082 10.6269 10.9376 10.5727 10.9496 10.5136C10.9617 10.4545 10.9559 10.3931 10.933 10.3373Z" stroke="#FFFDF9" stroke-width="0.761311" stroke-linecap="round" stroke-linejoin="round"/>
</svg>
