<svg width="22" height="22" viewBox="0 0 18 19" fill="none" xmlns="http://www.w3.org/2000/svg">
<g id="Group 1">
<path id="Vector" d="M12.5538 13.4146L15.286 15.4412C15.5297 15.6221 15.6914 15.8924 15.7358 16.1926C15.7802 16.4928 15.7035 16.7983 15.5226 17.0419C15.3417 17.2856 15.0714 17.4473 14.7712 17.4917C14.4711 17.5361 14.1656 17.4594 13.922 17.2785C13.7928 17.1814 13.6852 17.0586 13.6057 16.9179L11.9502 13.9448C11.9049 13.8628 11.889 13.7677 11.9051 13.6754C11.9213 13.5831 11.9684 13.499 12.0389 13.4371C12.1093 13.3753 12.1987 13.3393 12.2923 13.3352C12.386 13.3311 12.4782 13.3592 12.5538 13.4146Z" stroke="#EC888D" stroke-width="1.2241" stroke-linecap="round" stroke-linejoin="round"/>
<circle id="Ellipse 1" cx="8.37135" cy="8.54168" r="5.93182" transform="rotate(-41.2978 8.37135 8.54168)" stroke="#EC888D" stroke-width="1.31818"/>
</g>
</svg>
