<svg width="17" height="19" viewBox="0 0 17 19" fill="none" xmlns="http://www.w3.org/2000/svg">
<path d="M5.33936 11.5657L10.487 15.2579M5.33936 11.5657C5.60097 11.1658 5.75357 10.6597 5.75357 10.0627C5.75357 9.46571 5.60097 8.98287 5.33936 8.61203M5.33936 11.5657C4.89911 12.2387 4.15015 12.6112 3.30025 12.6112C1.94531 12.6112 0.846924 11.6644 0.846924 10.0627C0.846924 8.46102 1.94531 7.68108 3.30025 7.68108C4.15015 7.68108 4.89911 7.98795 5.33936 8.61203M10.6563 5.05168L5.33936 8.61203M10.6563 5.05168C11.0186 5.95554 11.9019 6.36638 12.9341 6.36638C14.289 6.36638 15.3874 5.65849 15.3874 4.05678C15.3874 2.45508 14.289 1.60059 12.9341 1.60059C11.5792 1.60059 10.4808 2.45508 10.4808 4.05678C10.4808 4.43828 10.5431 4.76908 10.6563 5.05168ZM15.3874 15.6693C15.3874 17.271 14.289 18.0343 12.9341 18.0343C11.5792 18.0343 10.4808 17.271 10.4808 15.6693C10.4808 14.0676 11.5792 13.1042 12.9341 13.1042C14.289 13.1042 15.3874 14.0676 15.3874 15.6693Z" stroke="#FFFDF9" stroke-width="1.64338" stroke-linecap="round" stroke-linejoin="round"/>
</svg>
