<svg width="10" height="10" viewBox="0 0 10 10" fill="none" xmlns="http://www.w3.org/2000/svg">
<path id="Vector" d="M7.01832 1.88234L5.98482 0.496022C5.86887 0.341573 5.72034 0.216583 5.55073 0.130623C5.38112 0.0446633 5.19482 0 5.00603 0C4.81723 0 4.63093 0.0446633 4.46132 0.130623C4.29171 0.216583 4.14329 0.341573 4.02733 0.496022L2.99384 1.88234C2.84866 2.07767 2.65298 2.22627 2.42955 2.31088L0.840047 2.90441C0.658574 2.96855 0.493934 3.07544 0.359027 3.21667C0.224119 3.35789 0.122591 3.5296 0.0625021 3.71834C0.00241311 3.90708 -0.0146702 4.10766 0.0126439 4.30439C0.0399581 4.50111 0.110952 4.68858 0.219949 4.8521L1.17079 6.30271C1.30151 6.50687 1.37323 6.74555 1.37749 6.99056L1.43118 8.74113C1.43516 8.93938 1.48339 9.13401 1.57197 9.30976C1.66056 9.48551 1.78715 9.63759 1.94187 9.7542C2.09659 9.87081 2.27517 9.94876 2.46377 9.98192C2.65237 10.0151 2.84581 10.0025 3.02896 9.9453L4.65369 9.45681C4.88111 9.38782 5.12277 9.38782 5.35019 9.45681L6.97492 9.9453C7.15807 10.0025 7.35152 10.0151 7.54011 9.98192C7.72871 9.94876 7.90729 9.87081 8.06201 9.7542C8.21673 9.63759 8.34332 9.48551 8.43191 9.30976C8.52049 9.13401 8.56872 8.93938 8.5727 8.74113L8.6264 6.99056C8.632 6.74578 8.7036 6.50748 8.8331 6.30271L9.78393 4.8521C9.89103 4.68866 9.96064 4.50203 9.9875 4.30643C10.0144 4.11083 9.99779 3.91149 9.93896 3.72357C9.88012 3.53565 9.78063 3.36413 9.64809 3.22216C9.51554 3.08019 9.35339 2.97151 9.17413 2.90441L7.5826 2.31088C7.35918 2.22627 7.1635 2.07767 7.01832 1.88234Z" fill="#EC888D"/>
</svg>
