<svg width="12" height="12" viewBox="0 0 13 12" fill="none" xmlns="http://www.w3.org/2000/svg">
<path d="M8.75616 2.62958L7.65474 1.15216C7.53117 0.987556 7.37288 0.854351 7.19213 0.762742C7.01137 0.671134 6.81283 0.623535 6.61162 0.623535C6.41042 0.623535 6.21188 0.671134 6.03112 0.762742C5.85036 0.854351 5.69219 0.987556 5.56861 1.15216L4.4672 2.62958C4.31247 2.83775 4.10394 2.99612 3.86583 3.08628L2.17186 3.71882C1.97847 3.78717 1.80301 3.90109 1.65923 4.05159C1.51546 4.2021 1.40726 4.38509 1.34322 4.58623C1.27918 4.78738 1.26098 5.00115 1.29009 5.2108C1.3192 5.42045 1.39485 5.62024 1.51101 5.7945L2.52434 7.34044C2.66365 7.55802 2.74008 7.81239 2.74462 8.0735L2.80184 9.93911C2.80608 10.1504 2.85748 10.3578 2.95189 10.5451C3.0463 10.7324 3.18121 10.8945 3.3461 11.0188C3.51099 11.143 3.7013 11.2261 3.90229 11.2614C4.10328 11.2968 4.30944 11.2834 4.50463 11.2224L6.23613 10.7018C6.4785 10.6283 6.73603 10.6283 6.9784 10.7018L8.70991 11.2224C8.9051 11.2834 9.11125 11.2968 9.31225 11.2614C9.51324 11.2261 9.70355 11.143 9.86844 11.0188C10.0333 10.8945 10.1682 10.7324 10.2626 10.5451C10.3571 10.3578 10.4085 10.1504 10.4127 9.93911L10.4699 8.0735C10.4759 7.81263 10.5522 7.55867 10.6902 7.34044L11.7035 5.7945C11.8177 5.62033 11.8918 5.42143 11.9205 5.21297C11.9491 5.00452 11.9314 4.79208 11.8687 4.59181C11.806 4.39154 11.7 4.20874 11.5587 4.05745C11.4175 3.90615 11.2447 3.79033 11.0536 3.71882L9.35753 3.08628C9.11942 2.99612 8.91088 2.83775 8.75616 2.62958Z" fill="#FFFDF9" stroke="#FFFDF9" stroke-width="0.819783" stroke-linecap="round" stroke-linejoin="round"/>
</svg>
