<svg width="12" height="12" viewBox="0 0 12 12" fill="none" xmlns="http://www.w3.org/2000/svg">
<path d="M8.09185 2.62958L6.99044 1.15216C6.86686 0.987556 6.70858 0.854351 6.52782 0.762742C6.34706 0.671134 6.14852 0.623535 5.94732 0.623535C5.74611 0.623535 5.54757 0.671134 5.36682 0.762742C5.18606 0.854351 5.02788 0.987556 4.90431 1.15216L3.80289 2.62958C3.64817 2.83775 3.43964 2.99612 3.20152 3.08628L1.50756 3.71882C1.31416 3.78717 1.1387 3.90109 0.994926 4.05159C0.851152 4.2021 0.742952 4.38509 0.678914 4.58623C0.614876 4.78738 0.59667 5.00115 0.62578 5.2108C0.654889 5.42045 0.730548 5.62024 0.846708 5.7945L1.86003 7.34044C1.99935 7.55802 2.07578 7.81239 2.08032 8.0735L2.13754 9.93911C2.14178 10.1504 2.19318 10.3578 2.28758 10.5451C2.38199 10.7324 2.5169 10.8945 2.68179 11.0188C2.84668 11.143 3.03699 11.2261 3.23799 11.2614C3.43898 11.2968 3.64513 11.2834 3.84032 11.2224L5.57183 10.7018C5.8142 10.6283 6.07173 10.6283 6.3141 10.7018L8.0456 11.2224C8.24079 11.2834 8.44695 11.2968 8.64794 11.2614C8.84893 11.2261 9.03924 11.143 9.20413 11.0188C9.36902 10.8945 9.50393 10.7324 9.59834 10.5451C9.69275 10.3578 9.74415 10.1504 9.74839 9.93911L9.80561 8.0735C9.81158 7.81263 9.88789 7.55867 10.0259 7.34044L11.0392 5.7945C11.1533 5.62033 11.2275 5.42143 11.2562 5.21297C11.2848 5.00452 11.2671 4.79208 11.2044 4.59181C11.1417 4.39154 11.0357 4.20874 10.8944 4.05745C10.7532 3.90615 10.5804 3.79033 10.3893 3.71882L8.69322 3.08628C8.45511 2.99612 8.24658 2.83775 8.09185 2.62958Z" stroke="#FFFDF9" stroke-width="0.819783" stroke-linecap="round" stroke-linejoin="round"/>
</svg>
